<svg version="1.2" xmlns="http://www.w3.org/2000/svg" viewBox="0 0 512 512" width="512" height="512">
	<style>
		.s0 { fill: #50c878 } 
	</style>
	<path id="CM" class="s0" aria-label="CM"  d="m134.3 360.7q-26.8 0-48-12.3-20.9-12.5-33.1-35.8-12.1-23.5-12.1-56.3 0-33 12.1-56.3 12.3-23.6 33.4-35.9 21.1-12.5 47.7-12.5 16.7 0 31.2 4.7 14.7 4.7 26 13.8 11.4 9.1 18.7 22.3 7.5 13 10 29.7h-36.8q-1.7-9.1-6.1-16-4.3-7.1-10.8-11.9-6.4-4.9-14.5-7.4-8-2.5-17.1-2.5-16.7 0-29.7 8.4-12.8 8.4-20.2 24.5-7.2 16-7.2 39.1 0 23.3 7.3 39.4 7.4 16 20.2 24.2 13 8.1 29.5 8.1 9.1 0 17.2-2.4 8-2.7 14.5-7.4 6.5-4.9 10.8-11.9 4.4-7.1 6.2-16.1h36.8q-2.1 14.6-9 27.5-6.9 12.6-18.2 22.4-11 9.7-26 15.3-14.8 5.3-32.8 5.3zm155.1-2.7h-35.9v-203.7h55l38.7 105.2q2 5.8 4.5 15.1 2.5 9.1 5.2 19.8 2.7 10.6 5 20.9 2.4 10.1 4.1 17.9h-7.4q1.7-7.5 4-17.6 2.4-10.1 5.1-20.8 2.7-10.7 5.2-19.9 2.6-9.5 4.5-15.4l38.2-105.2h55.2v203.7h-36.5v-102.8q0-6.5 0.1-15.7 0.3-9.5 0.5-20.1 0.3-10.7 0.4-21.5 0.4-11 0.5-20.7h2.5q-2.7 10.7-6 22.1-3.1 11.2-6.3 21.8-3.1 10.6-6 19.5-2.7 8.8-4.7 14.6l-37.7 102.8h-31l-38.2-102.8q-2-5.7-4.9-14.4-2.6-8.7-6-19.2-3-10.6-6.4-21.9-3.2-11.5-6.3-22.5h3q0.2 9.1 0.4 19.9 0.3 10.6 0.4 21.4 0.4 10.8 0.5 20.4 0.3 9.5 0.3 16.3z"/>
</svg>