<svg version="1.2" xmlns="http://www.w3.org/2000/svg" viewBox="0 0 1200 300" width="1200" height="300">
	<style>
		.s0 { fill: #50c878 } 
		.s1 { fill: #2b2b2b } 
	</style>
	<path id="CM" class="s0" aria-label="CM"  d="m131.2 209.6q-15.3 0-27.3-7.1-12-7.1-18.9-20.4-6.9-13.5-6.9-32.2 0-18.9 6.9-32.2 7-13.4 19-20.5 12.1-7.2 27.2-7.2 9.6 0 17.8 2.8 8.4 2.6 14.8 7.9 6.6 5.1 10.7 12.7 4.3 7.4 5.7 16.9h-21q-1-5.2-3.5-9.1-2.4-4.1-6.1-6.8-3.6-2.8-8.3-4.2-4.5-1.5-9.8-1.5-9.5 0-16.9 4.8-7.3 4.8-11.5 14-4.1 9.2-4.1 22.4 0 13.3 4.1 22.5 4.3 9.1 11.6 13.8 7.4 4.7 16.8 4.7 5.2 0 9.8-1.4 4.6-1.5 8.3-4.2 3.7-2.9 6.1-6.8 2.6-4.1 3.6-9.2h20.9q-1.1 8.3-5.1 15.7-3.9 7.2-10.3 12.8-6.3 5.5-14.9 8.7-8.4 3.1-18.7 3.1zm89-1.6h-20.5v-116.4h31.4l22.1 60.1q1.1 3.3 2.5 8.6 1.5 5.3 3 11.4 1.5 6 2.9 11.9 1.3 5.8 2.3 10.2h-4.2q0.9-4.3 2.2-10 1.4-5.8 2.9-11.9 1.6-6.1 3-11.4 1.5-5.4 2.6-8.8l21.8-60.1h31.4v116.4h-20.7v-58.8q0-3.7 0-8.9 0.1-5.4 0.3-11.5 0.2-6.1 0.2-12.3 0.3-6.3 0.3-11.8h1.4q-1.5 6.1-3.4 12.6-1.7 6.4-3.6 12.5-1.7 6-3.4 11.1-1.6 5-2.7 8.3l-21.5 58.8h-17.7l-21.8-58.8q-1.1-3.2-2.8-8.2-1.5-5-3.4-11-1.7-6-3.7-12.5-1.8-6.5-3.5-12.8h1.7q0.1 5.2 0.2 11.3 0.2 6.1 0.2 12.3 0.2 6.2 0.3 11.7 0.2 5.4 0.2 9.2z"/>
	<path id="interactive" class="s1" aria-label="interactive"  d="m375.8 208h-16.6v-84.5h16.6zm-8.3-97.4q-4.2 0-7.3-3-3.1-2.9-3.1-6.9 0-4.2 3.1-7 3.1-2.9 7.3-2.9 4.4 0 7.4 2.9 3.1 2.8 3.1 7 0 4-3.1 6.9-3 3-7.4 3zm47.3 47.3v50.1h-16.6v-84.6h15.8l0.2 20.7h-1.7q3.7-11.3 10.6-16.5 7.1-5.2 17.1-5.2 8.6 0 15.1 3.6 6.4 3.6 10 10.8 3.6 7 3.6 17.5v53.7h-16.6v-51.7q0-9.1-4.8-14.3-4.7-5.1-13-5.1-5.6 0-10.2 2.5-4.4 2.4-7 7.1-2.5 4.7-2.5 11.4zm67.7-34.5h45.9v13.6h-45.9zm12.4 63v-83.1h16.6v81.7q0 5.2 2.1 7.5 2.2 2.4 7.1 2.4 1.3 0 3.4-0.2 2.1-0.4 3.6-0.7l3 13.3q-2.7 0.9-5.8 1.4-3 0.3-5.9 0.3-11.5 0-17.9-5.9-6.2-5.9-6.2-16.7zm84.7 23.3q-12.5 0-21.5-5.4-9.1-5.4-14-15.2-4.8-9.7-4.8-22.9 0-13 4.7-22.8 4.9-10 13.6-15.5 8.8-5.6 20.6-5.6 7.2 0 13.9 2.4 6.8 2.3 12.2 7.4 5.4 5.1 8.4 13.2 3.2 8 3.2 19.5v5.9h-67.4v-12.4h58.9l-7.8 4.1q0-7.8-2.4-13.7-2.4-6-7.2-9.2-4.7-3.4-11.8-3.4-7 0-12 3.4-5 3.4-7.7 9-2.6 5.5-2.6 12.1v8.4q0 8.7 3 14.8 3 5.9 8.3 9 5.5 3.1 12.6 3.1 4.6 0 8.4-1.3 3.8-1.4 6.5-4 2.8-2.7 4.3-6.7l15.6 3.7q-2 6.6-6.9 11.6-4.7 4.9-11.9 7.7-7.1 2.8-16.2 2.8zm71.2-1.8h-16.6v-84.5h16.1v13.5h0.9q2.3-6.8 8.1-10.7 5.9-4 13.3-4 1.6 0 3.6 0.1 2.1 0.1 3.4 0.3v15.9q-0.9-0.3-3.5-0.6-2.5-0.3-5.2-0.3-5.8 0-10.4 2.5-4.5 2.3-7.1 6.6-2.6 4.3-2.6 9.9zm66 1.8q-8 0-14.5-2.9-6.5-3-10.3-8.7-3.7-5.8-3.7-14.1 0-7.2 2.7-11.8 2.8-4.6 7.5-7.3 4.7-2.7 10.5-4 5.8-1.5 11.8-2.2 7.5-0.9 12.1-1.4 4.7-0.6 6.9-1.9 2.3-1.4 2.3-4.3v-0.5q0-4.7-1.9-7.9-1.7-3.3-5.4-5.1-3.6-1.8-8.9-1.8-5.5 0-9.5 1.8-3.9 1.6-6.4 4.3-2.5 2.6-3.7 5.5l-15.6-4.1q2.9-7.6 8.2-12.2 5.4-4.6 12.3-6.7 7-2.1 14.5-2.1 5 0 10.7 1.3 5.8 1.1 10.8 4.4 5.1 3 8.3 8.9 3.2 5.7 3.2 14.9v56.1h-16.1v-11.6h-0.8q-1.7 3.3-4.9 6.4-3.3 3.1-8.3 5.1-4.9 1.9-11.8 1.9zm3.7-13.3q6.8 0 11.6-2.6 4.9-2.7 7.4-7 2.7-4.4 2.7-9.4v-10.8q-0.9 0.9-3.5 1.7-2.5 0.6-5.8 1.2-3.2 0.6-6.2 1-3.1 0.4-5 0.6-4.7 0.6-8.6 2.1-3.9 1.4-6.2 4.1-2.3 2.5-2.3 6.9 0 4 2 6.7 2.1 2.7 5.7 4.2 3.6 1.3 8.2 1.3zm96.2 13.2q-11.9 0-20.8-5.4-8.8-5.5-13.7-15.2-4.9-9.9-4.9-22.9 0-13.2 4.9-23 4.9-9.9 13.7-15.3 8.9-5.5 20.8-5.5 6.6 0 12.3 1.7 5.8 1.7 10.4 4.9 4.7 3.2 7.9 7.9 3.2 4.6 4.8 10.4l-15.8 3.8q-0.8-3.2-2.6-5.9-1.7-2.7-4.2-4.7-2.4-1.9-5.7-3-3.2-1-7-1-7.7 0-12.7 4-5 4-7.5 10.8-2.4 6.7-2.4 14.9 0 8 2.4 14.8 2.5 6.6 7.5 10.7 5 4 12.7 4 3.9 0 7.2-1.1 3.3-1.1 5.8-3.1 2.5-2.1 4.2-4.8 1.8-2.9 2.6-6.3l15.7 3.7q-1.5 6.1-4.7 10.8-3.3 4.7-8 8.1-4.6 3.3-10.5 5.1-5.7 1.6-12.4 1.6zm43.8-86.2h45.9v13.5h-45.9zm12.4 63v-83.1h16.6v81.7q0 5.2 2.1 7.6 2.2 2.3 7.1 2.3 1.3 0 3.4-0.2 2.1-0.4 3.6-0.7l3 13.3q-2.7 0.9-5.8 1.4-3 0.3-5.9 0.3-11.5 0-17.9-5.9-6.2-5.9-6.2-16.7zm66.9 21.5h-16.6v-84.5h16.6zm-8.3-97.5q-4.2 0-7.3-2.9-3.1-2.9-3.1-6.9 0-4.2 3.1-7 3.1-2.9 7.3-2.9 4.4 0 7.4 2.9 3.1 2.8 3.1 7 0 4-3.1 6.9-3 2.9-7.4 2.9zm73 97.5h-18.1l-31.9-84.6h18l16.7 48.1q2.8 7.9 4.7 15.9 2 7.9 4.2 15.8h-5q2.1-7.9 4.1-15.8 2-8 4.7-15.9l16.7-48.1h17.8zm80.1 1.8q-12.5 0-21.5-5.4-9-5.4-14-15.1-4.8-9.8-4.8-22.9 0-13 4.7-22.8 4.9-10 13.6-15.5 8.8-5.6 20.6-5.6 7.2 0 13.9 2.4 6.8 2.3 12.2 7.4 5.4 5 8.4 13.1 3.2 8.1 3.2 19.5v5.9h-67.3v-12.4h58.8l-7.8 4.1q0-7.7-2.4-13.7-2.4-5.9-7.2-9.2-4.7-3.4-11.8-3.4-7 0-12 3.4-5 3.4-7.7 9-2.6 5.5-2.6 12.1v8.5q0 8.6 3 14.7 3 6 8.3 9.1 5.5 3 12.6 3 4.6 0 8.4-1.3 3.8-1.3 6.6-4 2.7-2.7 4.2-6.6l15.6 3.6q-2 6.6-6.8 11.7-4.8 4.9-12 7.7-7.1 2.7-16.2 2.7z"/>
</svg>